<svg width="25" height="24" viewBox="0 0 25 24" fill="none" xmlns="http://www.w3.org/2000/svg">
<path d="M12.4999 10.5268H22.2098C22.3169 11.125 22.3705 11.6964 22.3705 12.2411C22.3705 14.1786 21.9642 15.9085 21.1517 17.4308C20.3392 18.9531 19.1808 20.1429 17.6763 21C16.1718 21.8572 14.4464 22.2857 12.4999 22.2857C11.0982 22.2857 9.76334 22.0156 8.49548 21.4755C7.22763 20.9353 6.13388 20.2054 5.21423 19.2857C4.29459 18.3661 3.56468 17.2723 3.0245 16.0045C2.48432 14.7366 2.21423 13.4018 2.21423 12C2.21423 10.5982 2.48432 9.2634 3.0245 7.99554C3.56468 6.72769 4.29459 5.63394 5.21423 4.71429C6.13388 3.79465 7.22763 3.06474 8.49548 2.52456C9.76334 1.98438 11.0982 1.71429 12.4999 1.71429C15.1785 1.71429 17.4776 2.61162 19.3973 4.40626L16.5982 7.09822C15.4999 6.03572 14.1339 5.50447 12.4999 5.50447C11.3482 5.50447 10.2834 5.79465 9.30575 6.37501C8.32807 6.95537 7.55352 7.74331 6.98209 8.73885C6.41066 9.73438 6.12495 10.8214 6.12495 12C6.12495 13.1786 6.41066 14.2656 6.98209 15.2612C7.55352 16.2567 8.32807 17.0447 9.30575 17.625C10.2834 18.2054 11.3482 18.4955 12.4999 18.4955C13.2767 18.4955 13.991 18.3884 14.6428 18.1741C15.2946 17.9598 15.8303 17.692 16.2499 17.3705C16.6696 17.0491 17.0357 16.683 17.3482 16.2723C17.6607 15.8616 17.8906 15.4732 18.0379 15.1072C18.1852 14.7411 18.2857 14.3929 18.3392 14.0625H12.4999V10.5268Z" fill="white"/>
</svg>
