<svg width="21" height="22" viewBox="0 0 21 22" fill="none" xmlns="http://www.w3.org/2000/svg">
<path d="M10.4999 9.5268H20.2098C20.3169 10.125 20.3705 10.6964 20.3705 11.2411C20.3705 13.1786 19.9642 14.9085 19.1517 16.4308C18.3392 17.9531 17.1808 19.1429 15.6763 20C14.1718 20.8572 12.4464 21.2857 10.4999 21.2857C9.09816 21.2857 7.76334 21.0156 6.49548 20.4755C5.22763 19.9353 4.13388 19.2054 3.21423 18.2857C2.29459 17.3661 1.56468 16.2723 1.0245 15.0045C0.484323 13.7366 0.214233 12.4018 0.214233 11C0.214233 9.59822 0.484323 8.2634 1.0245 6.99554C1.56468 5.72769 2.29459 4.63394 3.21423 3.71429C4.13388 2.79465 5.22763 2.06474 6.49548 1.52456C7.76334 0.984384 9.09816 0.714294 10.4999 0.714294C13.1785 0.714294 15.4776 1.61162 17.3973 3.40626L14.5982 6.09822C13.4999 5.03572 12.1339 4.50447 10.4999 4.50447C9.34816 4.50447 8.28343 4.79465 7.30575 5.37501C6.32807 5.95537 5.55352 6.74331 4.98209 7.73885C4.41066 8.73438 4.12495 9.82144 4.12495 11C4.12495 12.1786 4.41066 13.2656 4.98209 14.2612C5.55352 15.2567 6.32807 16.0447 7.30575 16.625C8.28343 17.2054 9.34816 17.4955 10.4999 17.4955C11.2767 17.4955 11.991 17.3884 12.6428 17.1741C13.2946 16.9598 13.8303 16.692 14.2499 16.3705C14.6696 16.0491 15.0357 15.683 15.3482 15.2723C15.6607 14.8616 15.8906 14.4732 16.0379 14.1072C16.1852 13.7411 16.2857 13.3929 16.3392 13.0625H10.4999V9.5268Z" fill="white"/>
</svg>
